# xmcd
#
# Track frame offsets: 
#        150
#        19935
#        42260
#        63844
#        84330
#        99328
#        120934
#        138366
#        157448
#        178592
#        198009
#        219472
#        239773
#        257179
#        277537
#        296936
#
# Disc length: 4193 seconds
#
# Revision: 0
# Processed by: cddbd v1.4PL0 Copyright (c) Steve Scherf et al.
# Submitted via: ExactAudioCopy v0.90b4
#
DISCID=e2105f10
DTITLE=Whitney Houston - Music Collection
DYEAR=2001
DGENRE=Dance
TTITLE0=I Will Always Love You
TTITLE1=I'm Your Baby Tonight
TTITLE2=I Have Nothing
TTITLE3=Didn't We Almos Have It All
TTITLE4=Exhale (Shoop Shoop)
TTITLE5=I Wanna Dance With Somebody (who Loves Me)
TTITLE6=All The Man That I Need
TTITLE7=It's Not Right But It's Okay (Thunderpuss mix)
TTITLE8=Greatest Love Of All (club 69 mix)
TTITLE9=I Learned From The Best
TTITLE10=It's Not Right But It's Okay
TTITLE11=So Emotional
TTITLE12=I Believe In You And Me
TTITLE13=If I Told You That (W.Houston and G.Michael)
TTITLE14=My Loves Is You Love
TTITLE15=Could I Have This Kiss Forever (Metro mix)
EXTD=
EXTT0=
EXTT1=
EXTT2=
EXTT3=
EXTT4=
EXTT5=
EXTT6=
EXTT7=
EXTT8=
EXTT9=
EXTT10=
EXTT11=
EXTT12=
EXTT13=
EXTT14=
EXTT15=
PLAYORDER=
